<?xml version="1.0" encoding="UTF-8"?>
<svg xmlns="http://www.w3.org/2000/svg" xmlns:xlink="http://www.w3.org/1999/xlink" width="375pt" height="374.999991pt" viewBox="0 0 375 374.999991" version="1.2">
<g id="surface1">
<path style=" stroke:none;fill-rule:nonzero;fill:rgb(0%,0%,0%);fill-opacity:1;" d="M 170.097656 188.214844 C 170.097656 155.578125 223.113281 152.722656 223.113281 89.015625 C 223.113281 42.867188 190.988281 20.773438 187.738281 18.742188 L 219.679688 18.742188 L 251.675781 0 L 148.085938 0 C 42.683594 0 25.824219 73.707031 25.824219 98.175781 C 25.824219 134.605469 54.269531 179.851562 111.574219 179.851562 C 116.785156 179.851562 122.332031 179.519531 128.222656 178.84375 C 127.246094 181.566406 123.105469 190.839844 123.105469 199.238281 C 123.105469 216.726562 134.328125 227.882812 138.203125 234.695312 C 75.503906 234.085938 0 261.292969 0 321.800781 C 0 343.941406 19.023438 396 108.355469 396 C 210.242188 396 241.097656 333.070312 241.097656 297.808594 C 241.097656 230.457031 170.097656 219.316406 170.097656 188.214844 Z M 135.515625 165.691406 C 99.839844 165.691406 69.730469 120.863281 69.730469 72.914062 C 69.730469 58.675781 76.59375 17.242188 116.011719 17.242188 C 166.796875 17.242188 179.191406 92.582031 179.191406 113.074219 C 179.191406 117.808594 182.554688 165.691406 135.515625 165.691406 Z M 133.023438 374.21875 C 100.371094 374.21875 43.957031 360.261719 43.957031 310.777344 C 43.957031 293.667969 53.988281 248.871094 140.695312 248.871094 C 145.152344 248.871094 149.027344 249.035156 152.328125 249.382812 C 170.347656 262.84375 207.75 282.28125 207.75 318.136719 C 207.734375 334.390625 198.066406 374.21875 133.023438 374.21875 Z M 133.023438 374.21875 "/>
<path style=" stroke:none;fill-rule:nonzero;fill:rgb(0%,0%,0%);fill-opacity:1;" d="M 330 115.5 L 363 115.5 L 363 247.5 L 330 247.5 Z M 330 115.5 "/>
<path style=" stroke:none;fill-rule:nonzero;fill:rgb(0%,0%,0%);fill-opacity:1;" d="M 280.5 165 L 412.5 165 L 412.5 198 L 280.5 198 Z M 280.5 165 "/>
</g>
</svg>
